HIERARCHY
ROOT Hips
{
  OFFSET 0.0000 90.3781 0.0000
  CHANNELS 6 Xposition Yposition Zposition Yrotation Xrotation Zrotation
  JOINT Spine
  {
    OFFSET 0.0000 8.4838 -3.9483
    CHANNELS 3 Yrotation Xrotation Zrotation
    JOINT Spine1
    {
      OFFSET 0.0000 -7.5500 0.0000
      CHANNELS 3 Yrotation Xrotation Zrotation
      JOINT Spine2
      {
        OFFSET 0.0000 -7.5500 0.0000
        CHANNELS 3 Yrotation Xrotation Zrotation
        JOINT Spine3
        {
          OFFSET 0.0000 -12.7487 0.0000
          CHANNELS 3 Yrotation Xrotation Zrotation
          JOINT Neck
          {
            OFFSET 0.0000 -20.1503 0.0000
            CHANNELS 3 Yrotation Xrotation Zrotation
            JOINT Head
            {
              OFFSET 0.0000 -11.1009 0.0000
              CHANNELS 3 Yrotation Xrotation Zrotation
              JOINT HeadTip
              {
                OFFSET 0.0000 -16.8536 0.0000
                CHANNELS 3 Yrotation Xrotation Zrotation
                End Site
                {
                  OFFSET 0.0000 -8.4268 0.0000
                }
              }
            }
          }
          JOINT RightShoulder
          {
            OFFSET 7.0000 -12.3681 1.9038
            CHANNELS 3 Yrotation Xrotation Zrotation
            JOINT RightArm
            {
              OFFSET 0.0000 -13.6078 0.0000
              CHANNELS 3 Yrotation Xrotation Zrotation
              JOINT RightForeArm
              {
                OFFSET 0.0000 -27.1022 0.0000
                CHANNELS 3 Yrotation Xrotation Zrotation
                JOINT RightHand
                {
                  OFFSET 0.0000 -28.3000 0.0000
                  CHANNELS 3 Yrotation Xrotation Zrotation
                  JOINT RightHandThumb1
                  {
                    OFFSET -2.7849 -2.0780 0.1030
                    CHANNELS 3 Yrotation Xrotation Zrotation
                    JOINT RightFinger1Proximal
                    {
                      OFFSET 0.0000 -3.9891 0.0000
                      CHANNELS 3 Yrotation Xrotation Zrotation
                      JOINT RightFinger1Distal
                      {
                        OFFSET 0.0000 -3.0278 0.0000
                        CHANNELS 3 Yrotation Xrotation Zrotation
                        JOINT RightFinger1Tip
                        {
                          OFFSET 0.0000 -3.4590 0.0000
                          CHANNELS 3 Yrotation Xrotation Zrotation
                          End Site
                          {
                            OFFSET 0.0000 -1.7295 0.0000
                          }
                        }
                      }
                    }
                  }
                  JOINT RightHandEnd
                  {
                    OFFSET 1.4876 -2.4879 0.1030
                    CHANNELS 3 Yrotation Xrotation Zrotation
                    JOINT RightFinger5Proximal
                    {
                      OFFSET 0.0000 -4.7463 0.0000
                      CHANNELS 3 Yrotation Xrotation Zrotation
                      JOINT RightFinger5Medial
                      {
                        OFFSET 0.0000 -3.5000 0.0000
                        CHANNELS 3 Yrotation Xrotation Zrotation
                        JOINT RightFinger5Distal
                        {
                          OFFSET 0.0000 -2.2000 0.0000
                          CHANNELS 3 Yrotation Xrotation Zrotation
                          JOINT RightFinger5Tip
                          {
                            OFFSET 0.0000 -2.2409 0.0000
                            CHANNELS 3 Yrotation Xrotation Zrotation
                            End Site
                            {
                              OFFSET 0.0000 -1.1205 0.0000
                            }
                          }
                        }
                      }
                    }
                  }
                  JOINT RightFinger4Metacarpal
                  {
                    OFFSET 0.5475 -2.7430 0.1030
                    CHANNELS 3 Yrotation Xrotation Zrotation
                    JOINT RightFinger4Proximal
                    {
                      OFFSET 0.0000 -5.0325 0.0000
                      CHANNELS 3 Yrotation Xrotation Zrotation
                      JOINT RightFinger4Medial
                      {
                        OFFSET 0.0000 -4.3000 0.0000
                        CHANNELS 3 Yrotation Xrotation Zrotation
                        JOINT RightFinger4Distal
                        {
                          OFFSET 0.0000 -2.7732 0.0000
                          CHANNELS 3 Yrotation Xrotation Zrotation
                          JOINT RightFinger4Tip
                          {
                            OFFSET 0.0000 -2.7000 0.0000
                            CHANNELS 3 Yrotation Xrotation Zrotation
                            End Site
                            {
                              OFFSET 0.0000 -1.3500 0.0000
                            }
                          }
                        }
                      }
                    }
                  }
                  JOINT RightFinger3Metacarpal
                  {
                    OFFSET -0.5447 -2.7674 0.1030
                    CHANNELS 3 Yrotation Xrotation Zrotation
                    JOINT RightFinger3Proximal
                    {
                      OFFSET 0.0000 -5.3650 0.0000
                      CHANNELS 3 Yrotation Xrotation Zrotation
                      JOINT RightFinger3Medial
                      {
                        OFFSET 0.0000 -4.7000 0.0000
                        CHANNELS 3 Yrotation Xrotation Zrotation
                        JOINT RightFinger3Distal
                        {
                          OFFSET 0.0000 -3.1000 0.0000
                          CHANNELS 3 Yrotation Xrotation Zrotation
                          JOINT RightFinger3Tip
                          {
                            OFFSET 0.0000 -2.9982 0.0000
                            CHANNELS 3 Yrotation Xrotation Zrotation
                            End Site
                            {
                              OFFSET 0.0000 -1.4991 0.0000
                            }
                          }
                        }
                      }
                    }
                  }
                  JOINT RightFinger2Metacarpal
                  {
                    OFFSET -1.6034 -2.6456 0.1030
                    CHANNELS 3 Yrotation Xrotation Zrotation
                    JOINT RightFinger2Proximal
                    {
                      OFFSET 0.0000 -5.4138 0.0000
                      CHANNELS 3 Yrotation Xrotation Zrotation
                      JOINT RightFinger2Medial
                      {
                        OFFSET 0.0000 -4.5000 0.0000
                        CHANNELS 3 Yrotation Xrotation Zrotation
                        JOINT RightFinger2Distal
                        {
                          OFFSET 0.0000 -2.7685 0.0000
                          CHANNELS 3 Yrotation Xrotation Zrotation
                          JOINT RightFinger2Tip
                          {
                            OFFSET 0.0000 -2.7132 0.0000
                            CHANNELS 3 Yrotation Xrotation Zrotation
                            End Site
                            {
                              OFFSET 0.0000 -1.3566 0.0000
                            }
                          }
                        }
                      }
                    }
                  }
                }
              }
            }
          }
          JOINT LeftShoulder
          {
            OFFSET -7.0000 -12.3681 1.9038
            CHANNELS 3 Yrotation Xrotation Zrotation
            JOINT LeftArm
            {
              OFFSET 0.0000 -13.6078 0.0000
              CHANNELS 3 Yrotation Xrotation Zrotation
              JOINT LeftForeArm
              {
                OFFSET 0.0001 -27.1022 0.0000
                CHANNELS 3 Yrotation Xrotation Zrotation
                JOINT LeftHand
                {
                  OFFSET 0.0000 -28.3000 0.0000
                  CHANNELS 3 Yrotation Xrotation Zrotation
                  JOINT LeftHandEnd
                  {
                    OFFSET -1.4876 -2.4879 0.1030
                    CHANNELS 3 Yrotation Xrotation Zrotation
                    JOINT LeftFinger5Proximal
                    {
                      OFFSET 0.0000 -4.7463 0.0000
                      CHANNELS 3 Yrotation Xrotation Zrotation
                      JOINT LeftFinger5Medial
                      {
                        OFFSET 0.0000 -3.5000 0.0000
                        CHANNELS 3 Yrotation Xrotation Zrotation
                        JOINT LeftFinger5Distal
                        {
                          OFFSET 0.0000 -2.2000 0.0000
                          CHANNELS 3 Yrotation Xrotation Zrotation
                          JOINT LeftFinger5Tip
                          {
                            OFFSET 0.0000 -2.2409 0.0000
                            CHANNELS 3 Yrotation Xrotation Zrotation
                            End Site
                            {
                              OFFSET 0.0000 -1.1205 0.0000
                            }
                          }
                        }
                      }
                    }
                  }
                  JOINT LeftFinger4Metacarpal
                  {
                    OFFSET -0.5475 -2.7430 0.1030
                    CHANNELS 3 Yrotation Xrotation Zrotation
                    JOINT LeftFinger4Proximal
                    {
                      OFFSET 0.0000 -5.0325 0.0000
                      CHANNELS 3 Yrotation Xrotation Zrotation
                      JOINT LeftFinger4Medial
                      {
                        OFFSET 0.0000 -4.3000 0.0000
                        CHANNELS 3 Yrotation Xrotation Zrotation
                        JOINT LeftFinger4Distal
                        {
                          OFFSET 0.0000 -2.7732 0.0000
                          CHANNELS 3 Yrotation Xrotation Zrotation
                          JOINT LeftFinger4Tip
                          {
                            OFFSET 0.0000 -2.7000 0.0000
                            CHANNELS 3 Yrotation Xrotation Zrotation
                            End Site
                            {
                              OFFSET 0.0000 -1.3500 0.0000
                            }
                          }
                        }
                      }
                    }
                  }
                  JOINT LeftFinger3Metacarpal
                  {
                    OFFSET 0.5447 -2.7674 0.1030
                    CHANNELS 3 Yrotation Xrotation Zrotation
                    JOINT LeftFinger3Proximal
                    {
                      OFFSET 0.0000 -5.3650 0.0000
                      CHANNELS 3 Yrotation Xrotation Zrotation
                      JOINT LeftFinger3Medial
                      {
                        OFFSET 0.0000 -4.7000 0.0000
                        CHANNELS 3 Yrotation Xrotation Zrotation
                        JOINT LeftFinger3Distal
                        {
                          OFFSET 0.0000 -3.1000 0.0000
                          CHANNELS 3 Yrotation Xrotation Zrotation
                          JOINT LeftFinger3Tip
                          {
                            OFFSET 0.0000 -2.9982 0.0000
                            CHANNELS 3 Yrotation Xrotation Zrotation
                            End Site
                            {
                              OFFSET 0.0000 -1.4991 0.0000
                            }
                          }
                        }
                      }
                    }
                  }
                  JOINT LeftFinger2Metacarpal
                  {
                    OFFSET 1.6034 -2.6456 0.1030
                    CHANNELS 3 Yrotation Xrotation Zrotation
                    JOINT LeftFinger2Proximal
                    {
                      OFFSET 0.0000 -5.4138 0.0000
                      CHANNELS 3 Yrotation Xrotation Zrotation
                      JOINT LeftFinger2Medial
                      {
                        OFFSET 0.0000 -4.5000 0.0000
                        CHANNELS 3 Yrotation Xrotation Zrotation
                        JOINT LeftFinger2Distal
                        {
                          OFFSET 0.0000 -2.7685 0.0000
                          CHANNELS 3 Yrotation Xrotation Zrotation
                          JOINT LeftFinger2Tip
                          {
                            OFFSET 0.0000 -2.7131 0.0000
                            CHANNELS 3 Yrotation Xrotation Zrotation
                            End Site
                            {
                              OFFSET 0.0000 -1.3566 0.0000
                            }
                          }
                        }
                      }
                    }
                  }
                  JOINT LeftHandThumb1
                  {
                    OFFSET 2.7849 -2.0780 0.1030
                    CHANNELS 3 Yrotation Xrotation Zrotation
                    JOINT LeftFinger1Proximal
                    {
                      OFFSET 0.0000 -3.9891 0.0000
                      CHANNELS 3 Yrotation Xrotation Zrotation
                      JOINT LeftFinger1Distal
                      {
                        OFFSET 0.0000 -3.0278 0.0000
                        CHANNELS 3 Yrotation Xrotation Zrotation
                        JOINT LeftFinger1Tip
                        {
                          OFFSET 0.0000 -3.4590 0.0000
                          CHANNELS 3 Yrotation Xrotation Zrotation
                          End Site
                          {
                            OFFSET 0.0000 -1.7295 0.0000
                          }
                        }
                      }
                    }
                  }
                }
              }
            }
          }
        }
      }
    }
  }
  JOINT RightUpLeg
  {
    OFFSET -8.1000 0.0000 0.0000
    CHANNELS 3 Yrotation Xrotation Zrotation
    JOINT RightLeg
    {
      OFFSET 0.0000 -43.2000 0.0000
      CHANNELS 3 Yrotation Xrotation Zrotation
      JOINT RightFoot
      {
        OFFSET 0.0000 -43.3000 -0.0626
        CHANNELS 3 Yrotation Xrotation Zrotation
        JOINT RightToeBase
        {
          OFFSET 0.0000 -13.1694 6.2394
          CHANNELS 3 Yrotation Xrotation Zrotation
          JOINT RightToeTip
          {
            OFFSET 0.0000 -7.4457 1.2571
            CHANNELS 3 Yrotation Xrotation Zrotation
            End Site
            {
              OFFSET 0.0000 -3.7228 0.6286
            }
          }
        }
      }
    }
  }
  JOINT LeftUpLeg
  {
    OFFSET 8.1000 0.0000 0.0000
    CHANNELS 3 Yrotation Xrotation Zrotation
    JOINT LeftLeg
    {
      OFFSET 0.0000 -43.2000 0.0000
      CHANNELS 3 Yrotation Xrotation Zrotation
      JOINT LeftFoot
      {
        OFFSET 0.0000 -43.3000 -0.0626
        CHANNELS 3 Yrotation Xrotation Zrotation
        JOINT LeftToeBase
        {
          OFFSET 0.0000 -13.1694 6.2394
          CHANNELS 3 Yrotation Xrotation Zrotation
          JOINT LeftToeTip
          {
            OFFSET 0.0000 -7.4457 1.2571
            CHANNELS 3 Yrotation Xrotation Zrotation
            End Site
            {
              OFFSET 0.0000 -3.7228 0.6286
            }
          }
        }
      }
    }
  }
}
MOTION
Frames: 4
Frame Time: 0.033333
0.0000 90.3781 0.0000 0.0000 0.0000 0.0000 0.0000 0.0001 180.0000 0.0000 0.0000 0.0000 0.0000 0.0000 0.0000 0.0000 0.0000 0.0000 0.0000 0.0000 0.0000 0.0000 0.0000 0.0000 0.0000 0.0000 0.0000 0.0000 0.0000 90.0001 89.9999 0.0000 0.0000 0.0000 0.0000 0.0001 0.0000 0.0000 0.0000 40.8933 20.7046 -22.2077 -4.1067 -20.7048 22.2077 0.0000 0.0000 0.0000 0.0000 0.0003 0.0000 -0.0001 -0.0001 20.0000 0.0000 0.0001 -20.0000 0.0000 0.0000 0.0000 0.0000 0.0000 0.0000 0.0000 0.0000 0.0000 0.0000 -0.0001 10.0000 -0.0001 0.0000 -10.0000 0.0000 0.0000 0.0000 0.0000 0.0000 0.0000 0.0000 0.0000 0.0000 0.0000 -0.0001 -0.0001 -0.0001 0.0001 0.0000 0.0000 0.0000 0.0000 0.0000 0.0000 0.0000 0.0000 0.0000 0.0000 0.0000 -0.0001 -10.0001 -0.0001 0.0001 10.0000 0.0000 0.0000 0.0000 0.0000 0.0000 0.0000 0.0000 0.0000 0.0000 0.0000 0.0000 -90.0000 -89.9999 0.0000 0.0000 0.0001 0.0000 0.0001 0.0000 0.0000 0.0000 0.0001 -0.0001 -20.0000 0.0000 0.0001 20.0000 -0.0003 0.0000 -0.0001 0.0000 0.0000 0.0000 0.0000 0.0000 0.0000 0.0000 -0.0001 -9.9999 -0.0002 0.0001 9.9999 0.0000 0.0000 0.0000 0.0000 0.0000 0.0000 0.0000 0.0000 0.0000 -0.0001 0.0000 0.0000 0.0000 0.0000 0.0000 0.0000 0.0001 0.0000 0.0001 0.0000 0.0000 0.0000 0.0000 0.0000 0.0000 0.0000 10.0001 -0.0001 0.0000 -10.0001 0.0000 0.0000 0.0000 0.0000 0.0000 0.0000 0.0002 0.0000 0.0000 -40.8933 20.7047 22.2076 4.1067 -20.7047 -22.2077 0.0000 0.0000 0.0000 0.0000 0.0004 0.0000 90.0000 0.0000 0.0000 0.0000 0.0000 0.0000 -270.0000 90.0000 0.0000 0.0000 0.0000 0.0000 0.0000 0.0000 0.0000 -90.0000 0.0000 0.0000 0.0000 -0.0001 0.0000 270.0002 90.0000 0.0000 0.0000 0.0000 0.0000 0.0000 0.0000 0.0000 
-5.4648 79.6457 78.2297 65.2659 19.4049 26.7968 5.0690 6.4550 -177.6500 -5.0979 -6.4900 2.3646 -5.0848 -6.4741 2.3580 0.0000 0.0000 0.0000 8.7857 10.9072 -8.9296 8.7857 10.9072 -8.9296 0.0000 0.0000 0.0000 22.3982 13.5802 81.8725 73.3111 -24.6078 -32.8740 -1.2706 15.5738 -40.4723 3.2255 31.6721 -13.8541 111.1233 33.5012 -34.2875 1.5087 -3.7108 -22.1439 0.0000 -2.6703 0.0000 0.0000 0.0003 0.0000 -6.1094 -4.3340 28.7041 -97.5566 -56.7549 100.1596 4.7539 -14.8034 -18.0294 0.0000 -10.3580 0.0000 0.0000 0.0000 0.0000 -2.7938 -2.3590 14.1978 -48.5728 -55.3780 51.3251 5.5533 -28.4434 -11.5376 0.0000 -19.3135 0.0000 0.0000 0.0000 0.0000 0.0000 0.0000 0.0000 -21.4611 -53.2140 27.0932 -2.0775 -46.7602 2.8507 0.0000 -31.2948 0.0000 0.0000 0.0000 0.0000 1.2125 0.3039 -14.0690 17.4954 -61.9798 -7.6687 -0.7479 -31.7718 1.4201 0.0000 -21.2168 0.0001 0.0000 0.0000 0.0000 16.5591 2.9119 -86.3679 -13.2087 -76.8009 -73.4722 -27.5599 5.4529 76.1392 -1.6827 -9.7354 -14.8102 6.1094 -4.3340 -28.7041 1.5197 -30.2898 7.2986 -0.7709 -19.0513 2.3605 0.0000 -12.7174 0.0000 0.0000 0.0000 0.0000 2.7938 -2.3590 -14.1978 -1.3137 -40.4360 10.0449 2.8219 -32.3676 -5.2605 0.0000 -21.6838 0.0000 0.0000 0.0000 0.0000 0.0000 0.0000 0.0000 -2.1361 -37.8295 1.0313 -3.2479 -37.7877 5.2912 0.0000 -25.3225 0.0000 0.0000 0.0000 0.0000 -1.2125 0.3039 14.0690 -15.0055 -34.5674 5.5510 1.2210 -20.7925 -3.4360 0.0000 -13.8930 0.0000 0.0002 0.0000 0.0000 -83.0962 32.4128 55.2494 -1.5938 -16.6385 5.5504 0.0000 -11.1460 0.0000 0.0000 0.0004 0.0000 54.9098 12.6035 -69.1930 -0.3197 -0.1650 68.4032 -95.3713 59.9353 163.3536 0.0000 0.4110 -0.0017 0.0000 0.0000 0.0000 -116.3961 9.5733 9.1864 0.2889 -0.0370 -8.5758 -95.0947 45.6730 -18.6946 0.0000 34.0736 -18.5117 0.0000 0.0000 0.0000 
-5.3845 79.6406 78.1523 65.3518 19.2858 26.9660 5.0933 6.4665 -177.6610 -5.1224 -6.5017 2.3537 -5.1091 -6.4857 2.3470 0.0000 0.0000 0.0000 8.8714 10.8465 -8.9589 8.8714 10.8465 -8.9589 0.0000 0.0000 0.0000 22.4614 13.6398 81.9090 73.4814 -24.3859 -32.7474 -1.5042 15.5464 -40.4878 3.2848 31.5756 -13.9174 111.3839 33.6397 -34.3677 1.4775 -3.6510 -22.0510 0.0000 -2.6256 0.0000 0.0000 0.0003 0.0000 -6.1094 -4.3340 28.7041 -97.5815 -56.3315 100.7131 4.8158 -14.6196 -18.4587 0.0000 -10.2541 0.0000 0.0000 0.0000 0.0000 -2.7938 -2.3590 14.1978 -49.0827 -55.4963 51.0441 5.1654 -28.1125 -10.8601 0.0000 -19.0520 0.0000 0.0000 0.0000 0.0000 0.0000 0.0000 0.0000 -21.4076 -53.0136 27.2091 -1.8808 -46.6205 2.5869 0.0000 -31.1966 0.0000 0.0000 0.0000 0.0000 1.2125 0.3039 -14.0690 16.9397 -61.5676 -6.7816 -0.6396 -31.7359 1.2158 0.0000 -21.1913 0.0000 0.0000 0.0000 0.0000 16.7530 2.9619 -86.3205 -13.0135 -76.5998 -73.8528 -27.6580 5.4125 76.4580 -1.6262 -10.0138 -14.9463 6.1094 -4.3340 -28.7041 1.6290 -29.6951 7.1593 -0.7994 -18.8771 2.4694 0.0000 -12.6020 0.0000 0.0000 0.0000 0.0000 2.7938 -2.3590 -14.1978 -1.2115 -40.0992 10.3382 2.9635 -32.2331 -5.5437 0.0000 -21.6017 0.0000 0.0000 0.0000 0.0000 0.0000 0.0000 0.0000 -2.0566 -37.3067 0.7585 -3.4376 -37.7928 5.5984 0.0000 -25.3354 0.0000 0.0000 0.0000 0.0000 -1.2125 0.3039 14.0690 -14.8546 -33.5387 5.2958 1.1813 -21.0311 -3.2886 0.0000 -14.0506 0.0000 0.0002 0.0000 0.0000 -82.9965 32.4508 55.1999 -1.6065 -16.6081 5.6041 0.0000 -11.1267 0.0000 0.0000 0.0004 0.0000 54.6438 12.8540 -69.2630 -0.4195 -0.1418 68.3897 -95.2210 59.9602 163.3057 0.0000 0.4114 -0.0017 0.0000 0.0000 0.0000 -116.1366 9.3452 9.1398 0.2863 -0.0352 -8.2983 -95.3145 45.4292 -18.4967 0.0000 34.5839 -18.9077 0.0000 0.0000 0.0000 
-5.2741 79.6101 78.1208 65.4877 19.1849 27.1251 5.1023 6.4641 -177.6608 -5.1315 -6.4994 2.3539 -5.1182 -6.4833 2.3472 0.0000 0.0000 0.0000 8.9611 10.7673 -9.0761 8.9611 10.7673 -9.0761 0.0000 0.0000 0.0000 22.4287 13.6636 81.9428 73.7202 -23.9311 -32.6316 -1.8993 15.4091 -40.3506 3.3269 31.5377 -14.0453 111.8344 33.7730 -34.3971 1.3959 -3.4638 -21.9653 0.0000 -2.4895 0.0000 0.0000 0.0003 0.0000 -6.1094 -4.3340 28.7041 -98.2607 -55.9909 100.9576 4.6493 -14.3475 -18.1689 0.0000 -10.0478 0.0000 0.0000 0.0000 0.0000 -2.7938 -2.3590 14.1978 -49.5464 -55.6442 51.2136 5.0675 -27.7018 -10.7996 0.0000 -18.7712 0.0000 0.0000 0.0000 0.0000 0.0000 0.0000 0.0000 -21.1489 -52.7470 26.7984 -2.0057 -46.2679 2.7748 0.0000 -30.9623 0.0000 0.0000 0.0000 0.0000 1.2125 0.3039 -14.0690 16.4040 -60.3699 -6.6989 -0.9438 -31.7156 1.7949 0.0000 -21.1823 0.0001 0.0000 0.0000 0.0000 16.8628 3.0548 -86.2416 -13.0403 -76.3733 -74.0552 -27.8933 5.3360 76.8299 -1.5639 -10.0538 -14.8426 6.1094 -4.3340 -28.7041 1.7114 -29.4709 7.2571 -0.7587 -18.7393 2.3605 0.0000 -12.5089 0.0000 0.0000 0.0000 0.0000 2.7938 -2.3590 -14.1978 -1.1182 -40.0244 9.9876 2.7493 -32.2023 -5.1490 0.0000 -21.5698 0.0000 0.0000 0.0000 0.0000 0.0000 0.0000 0.0000 -1.9837 -37.3284 0.5564 -3.5729 -37.6126 5.8414 0.0000 -25.2223 0.0000 0.0000 0.0000 0.0000 -1.2125 0.3039 14.0690 -14.7931 -33.4450 5.4624 1.2116 -20.8633 -3.3986 0.0000 -13.9399 0.0000 0.0002 0.0000 0.0000 -83.2273 32.3902 55.0904 -1.5588 -16.3173 5.5324 0.0000 -10.9305 0.0000 0.0000 0.0004 0.0000 54.2659 12.9512 -69.3807 -0.3998 -0.1723 68.4987 -95.0366 59.8957 163.3102 0.0000 0.4112 -0.0017 0.0000 0.0000 0.0000 -116.3360 9.2151 9.4503 0.3160 -0.0917 -8.9258 -95.0237 45.7960 -18.4452 0.0000 34.5510 -18.8504 0.0000 0.0000 0.0000 
